<?xml version="1.0" standalone="no"?>
<!DOCTYPE svg PUBLIC "-//W3C//DTD SVG 20010904//EN"
 "http://www.w3.org/TR/2001/REC-SVG-20010904/DTD/svg10.dtd">
<svg version="1.0" xmlns="http://www.w3.org/2000/svg"
 width="512.000000pt" height="512.000000pt" viewBox="0 0 512.000000 512.000000"
 preserveAspectRatio="xMidYMid meet">

<g transform="translate(0.000000,512.000000) scale(0.100000,-0.100000)"
fill="#000000" stroke="none">
<path d="M3382 4011 c-10 -6 0 -35 41 -127 75 -164 91 -216 83 -272 -24 -175
-251 -244 -369 -113 -42 46 -60 116 -78 299 -13 137 -14 138 -84 99 -79 -45
-135 -214 -120 -362 14 -136 51 -221 133 -307 57 -60 161 -121 227 -134 19 -3
37 -13 39 -23 3 -9 39 -144 81 -301 42 -157 105 -392 141 -523 l64 -237 -54
-55 c-110 -109 -164 -276 -138 -428 42 -244 273 -482 416 -427 l25 9 -56 123
c-98 217 -112 282 -74 363 81 174 325 182 411 14 22 -43 37 -123 54 -285 l11
-119 30 3 c39 4 94 49 122 98 52 93 69 279 38 413 -43 183 -192 332 -370 372
-51 11 -56 15 -65 48 -5 20 -70 262 -144 538 l-134 501 44 48 c25 26 61 81 82
123 37 74 37 76 37 196 l0 122 -48 97 c-54 107 -132 198 -204 235 -43 21 -117
28 -141 12z"/>
<path d="M1562 3586 c-79 -28 -110 -76 -237 -368 -41 -94 -77 -173 -79 -176
-10 -10 -56 32 -56 52 0 30 -33 79 -72 110 -107 81 -288 73 -334 -16 -36 -69
8 -148 111 -199 58 -28 70 -31 137 -27 40 3 80 8 88 11 8 4 26 -2 39 -12 l24
-18 -64 -34 c-80 -43 -191 -146 -218 -204 -20 -43 -21 -60 -20 -362 0 -175 4
-410 8 -523 10 -317 -11 -302 413 -298 l308 3 32 33 c32 32 33 35 36 132 l4
100 739 0 739 0 26 52 c14 29 51 78 82 110 l55 58 -847 0 -847 0 -24 25 c-24
23 -25 29 -25 158 0 118 2 138 19 158 l19 24 801 3 c441 1 801 6 801 10 0 4
-31 122 -68 262 -38 140 -72 267 -76 282 l-6 28 -844 2 -843 3 98 225 c55 124
108 233 120 243 20 16 63 17 596 17 l575 0 -6 23 c-3 12 -6 46 -6 75 l0 52
-582 -1 c-430 0 -592 -4 -616 -13z m-285 -987 c86 -37 162 -131 163 -202 1
-129 -191 -157 -329 -48 -53 42 -96 128 -87 175 18 96 128 128 253 75z"/>
</g>
</svg>
